<?xml version="1.0" standalone="no"?>
<!DOCTYPE svg PUBLIC "-//W3C//DTD SVG 20010904//EN"
 "http://www.w3.org/TR/2001/REC-SVG-20010904/DTD/svg10.dtd">
<svg version="1.0" xmlns="http://www.w3.org/2000/svg"
 width="400.000000pt" height="400.000000pt" viewBox="0 0 400.000000 400.000000"
 preserveAspectRatio="xMidYMid meet">

<g transform="translate(0.000000,400.000000) scale(0.100000,-0.100000)"
fill="#000000" stroke="none">
<path d="M7 3993 c7 -2 19 -2 26 0 6 3 1 5 -13 5 -14 0 -19 -2 -13 -5z"/>
<path d="M78 3993 c6 -2 18 -2 25 0 6 3 1 5 -13 5 -14 0 -19 -2 -12 -5z"/>
<path d="M168 3993 c29 -2 74 -2 100 0 26 2 2 3 -53 3 -55 0 -76 -1 -47 -3z"/>
<path d="M447 3980 c4 -15 0 -20 -15 -20 -25 0 -41 -38 -21 -51 8 -5 24 -9 37
-9 15 0 22 -6 22 -20 0 -19 -7 -20 -235 -20 l-235 0 0 -119 c0 -114 1 -119 20
-114 13 4 20 0 20 -9 0 -22 -12 -29 -27 -17 -10 9 -13 5 -13 -22 l0 -34 45 3
c38 3 44 7 42 24 -3 26 28 47 44 31 9 -9 10 -19 1 -37 -10 -23 -9 -24 21 -25
53 -2 79 -1 135 5 47 5 52 8 52 31 0 20 4 24 23 21 14 -2 22 -10 22 -23 0 -19
8 -20 103 -23 113 -3 125 -12 67 -49 -34 -22 -42 -23 -295 -23 -165 0 -260 -4
-260 -10 0 -6 89 -10 246 -9 135 0 248 -2 251 -5 3 -3 3 -12 0 -21 -6 -13 -40
-15 -252 -15 -157 0 -245 -4 -245 -10 0 -11 13 -11 252 -14 144 -1 181 -6 165
-22 -3 -4 -45 -7 -93 -7 -75 0 -87 -3 -91 -18 -3 -10 -15 -20 -27 -22 -11 -2
13 -3 54 -2 55 2 89 -3 128 -18 77 -29 71 -48 -21 -62 -40 -6 -46 -10 -44 -29
1 -15 -4 -21 -18 -21 -14 0 -19 6 -18 20 2 19 -4 20 -100 19 -56 0 -121 -1
-144 -2 l-42 -2 0 -590 0 -590 28 -15 c29 -14 41 -33 41 -62 0 -11 -9 -7 -33
13 l-32 27 -3 -228 c-1 -125 0 -230 3 -233 3 -3 13 3 24 12 12 11 31 16 53 14
31 -3 33 -5 36 -46 2 -26 -2 -50 -10 -59 -7 -9 -13 -30 -14 -47 -1 -117 -5
-173 -13 -185 -5 -7 -25 -14 -45 -14 -28 -1 -36 -5 -36 -20 0 -17 5 -18 48
-11 66 12 120 10 134 -4 18 -18 10 -20 -77 -23 -98 -3 -110 -6 -94 -25 6 -8 7
-14 3 -14 -5 0 -10 -59 -12 -130 l-2 -130 32 0 c18 0 76 9 128 20 52 11 109
20 125 20 17 0 59 6 95 14 122 26 205 44 244 51 29 5 36 9 25 16 -12 7 -11 9
2 9 24 0 29 20 23 92 -2 35 -5 71 -5 81 0 9 -4 15 -10 12 -8 -6 -14 16 -10 38
1 5 -2 6 -7 3 -4 -2 -9 -49 -10 -103 -2 -54 -5 -105 -8 -115 -5 -17 -48 -33
-64 -23 -5 3 -9 75 -9 161 -1 158 -6 204 -23 204 -5 0 -6 -5 -2 -11 3 -6 2
-14 -3 -18 -6 -3 -12 -77 -15 -172 -3 -91 -8 -171 -12 -177 -4 -7 -20 -12 -37
-12 l-29 0 -1 168 c-1 92 -4 178 -8 192 -6 24 -12 25 -109 34 -71 6 -102 12
-102 21 0 21 52 106 68 113 8 3 29 -2 45 -12 16 -9 32 -15 34 -12 2 2 4 26 5
53 0 28 4 56 9 64 5 9 9 -17 9 -69 0 -66 3 -84 16 -89 31 -11 36 13 35 169 -1
143 0 157 19 181 20 25 50 37 50 19 0 -5 9 -18 20 -30 24 -25 62 -29 80 -7 15
18 4 56 -16 48 -7 -3 -14 0 -14 6 0 6 5 11 10 11 6 0 10 7 10 15 0 8 -7 15
-15 15 -8 0 -15 7 -15 15 0 19 14 19 30 0 14 -17 33 -19 58 -5 9 5 31 15 47
21 30 11 29 11 -40 30 -38 10 -80 19 -92 19 -28 0 -56 40 -47 66 4 10 4 16 -1
12 -11 -11 -35 11 -35 32 0 10 7 23 15 30 19 16 19 40 0 40 -8 0 -15 7 -15 15
0 9 -11 21 -25 27 -28 13 -34 48 -10 68 19 16 52 4 58 -21 4 -16 11 -19 34
-13 57 13 59 19 25 54 -52 51 -50 71 6 97 75 35 139 107 80 89 -13 -4 -30 -8
-38 -10 -16 -3 -28 -7 -97 -36 -23 -10 -44 -16 -47 -12 -4 3 -3 -8 0 -25 6
-31 -9 -73 -27 -73 -5 0 -8 12 -7 28 2 21 -1 27 -14 26 -10 -1 -18 2 -18 7 0
5 5 9 10 9 6 0 10 7 10 15 0 8 -6 15 -14 15 -21 0 -30 20 -17 33 8 8 16 5 31
-11 12 -12 24 -22 28 -22 14 1 42 27 42 39 0 7 10 21 23 31 17 15 19 21 10 31
-10 10 -15 9 -28 -1 -8 -7 -35 -14 -59 -16 -24 -2 -48 -4 -52 -5 -22 -4 -34 3
-45 22 -9 18 -7 30 11 67 l23 45 13 -25 c7 -14 20 -28 29 -32 12 -4 15 4 16
47 2 212 7 328 13 334 7 7 75 -65 76 -80 0 -5 5 -5 11 -1 6 3 24 -6 40 -22 16
-15 37 -29 47 -31 9 -2 24 -5 32 -7 8 -2 26 4 40 13 14 9 33 21 43 27 14 7 20
24 23 62 5 60 -7 88 -60 148 -61 68 -65 87 -28 158 18 33 32 68 32 76 0 9 14
21 31 27 26 10 28 14 19 30 -11 17 -95 71 -168 107 l-32 17 15 35 c8 20 15 38
15 40 0 2 15 4 33 4 38 0 57 15 57 46 0 30 -24 48 -56 40 -25 -7 -26 -5 -21
23 5 24 3 29 -8 25 -8 -4 -17 0 -19 7 -17 56 -15 54 -37 31 -28 -31 -77 -30
-85 2 -10 40 12 67 52 64 28 -2 41 5 72 36 37 37 37 37 10 31 -69 -17 -92 11
-66 81 14 40 42 49 67 23 16 -17 19 -18 31 -4 30 36 61 -5 33 -44 -13 -20 -12
-21 10 -21 14 0 28 7 31 16 9 24 7 86 -3 80 -5 -3 -19 8 -32 24 -23 29 -54 39
-61 21 -1 -4 -25 -11 -51 -13 -36 -4 -50 -2 -54 8 -3 8 -13 14 -23 14 -13 0
-17 -5 -13 -20z m-337 -154 c0 -8 -4 -17 -9 -21 -12 -7 -24 12 -16 25 9 15 25
12 25 -4z m273 -33 c-21 -26 -48 -46 -64 -50 -15 -3 -31 -15 -38 -29 -6 -13
-15 -24 -21 -24 -14 0 -12 13 5 36 21 27 19 31 -19 38 -22 4 -37 14 -41 26 -4
11 -11 18 -16 15 -5 -4 -9 1 -9 10 0 9 5 13 10 10 6 -3 10 -3 10 2 0 4 49 9
110 9 l109 2 -36 -45z m-288 -48 c0 -28 -29 -25 -33 3 -3 19 0 23 15 20 10 -2
18 -12 18 -23z m305 -15 c0 -5 -4 -10 -10 -10 -5 0 -10 5 -10 10 0 6 5 10 10
10 6 0 10 -4 10 -10z m-32 -64 c4 -17 -12 -35 -30 -36 -4 0 -14 7 -23 16 -12
13 -13 19 -4 31 16 19 53 12 57 -11z m-128 -26 c15 -28 -4 -60 -34 -60 -32 0
-50 24 -42 55 5 20 13 25 36 25 19 0 33 -7 40 -20z m27 -476 c8 -22 -18 -37
-36 -20 -7 8 -10 19 -7 25 10 16 36 13 43 -5z m-147 -119 c0 -8 -9 -15 -20
-15 -11 0 -20 7 -20 15 0 8 9 15 20 15 11 0 20 -7 20 -15z m104 -45 c41 0 86
-15 86 -30 0 -6 -26 -10 -60 -10 -53 0 -60 -2 -60 -19 0 -11 -11 -33 -25 -48
l-24 -28 6 51 c3 33 1 54 -6 58 -6 4 -11 2 -11 -3 0 -14 -27 -14 -35 -1 -4 6
4 21 16 34 22 22 25 23 51 10 15 -8 43 -14 62 -14z m130 -80 c34 -12 33 -26
-1 -35 -27 -7 -27 -7 -6 -16 24 -9 32 -32 31 -89 -1 -19 0 -39 2 -45 1 -5 2
-22 1 -37 -2 -44 -21 -32 -21 13 0 35 -2 40 -19 34 -19 -6 -27 0 -54 37 -18
25 -117 14 -117 -13 0 -29 -16 -23 -39 16 l-20 35 20 0 c25 0 83 56 74 70 -4
6 -4 17 -1 25 6 18 109 21 150 5z m-84 -193 c0 -17 -20 -37 -37 -37 -7 0 -17
9 -23 19 -14 28 13 55 41 41 10 -6 19 -16 19 -23z m-80 -40 c0 -8 11 -19 25
-25 34 -16 49 -57 34 -94 -11 -27 -49 -41 -49 -18 0 6 -11 16 -25 22 -33 15
-44 54 -20 72 10 7 15 18 11 24 -8 14 0 32 15 32 5 0 9 -6 9 -13z m-85 -65 c0
-18 -20 -15 -23 4 -3 10 1 15 10 12 7 -3 13 -10 13 -16z m182 -108 c6 -16 -19
-44 -39 -44 -12 0 -21 28 -14 45 7 20 45 19 53 -1z m-190 -20 c-9 -9 -28 6
-21 18 4 6 10 6 17 -1 6 -6 8 -13 4 -17z m57 -36 c32 -45 11 -87 -46 -92 -38
-4 -67 17 -81 56 -16 46 97 79 127 36z m161 -18 c-5 -8 -11 -8 -17 -2 -6 6 -7
16 -3 22 5 8 11 8 17 2 6 -6 7 -16 3 -22z m-37 -48 c4 -26 -26 -42 -38 -21
-11 16 7 52 23 46 7 -2 13 -13 15 -25z m-83 -82 c-5 -8 -11 -8 -17 -2 -6 6 -7
16 -3 22 5 8 11 8 17 2 6 -6 7 -16 3 -22z m-45 5 c0 -8 -9 -15 -20 -15 -20 0
-26 11 -13 23 12 13 33 7 33 -8z m28 -53 c4 -25 -13 -30 -22 -6 -9 25 -7 36 7
32 6 -3 13 -14 15 -26z m112 14 c6 -8 10 -25 8 -38 -2 -19 -10 -24 -40 -26
-33 -3 -38 0 -44 23 -4 15 -1 31 6 40 16 19 54 19 70 1z m110 -82 c0 -14 -21
-19 -33 -7 -9 9 13 34 24 27 5 -3 9 -12 9 -20z m-276 -30 c39 -15 -3 -88 -44
-77 -30 8 -47 47 -30 68 13 15 46 20 74 9z m91 -34 c0 -18 -6 -26 -22 -28 -18
-3 -23 1 -23 21 0 28 9 39 30 35 9 -2 15 -14 15 -28z m110 -1 c10 -15 -1 -23
-20 -15 -9 3 -13 10 -10 16 8 13 22 13 30 -1z m54 -61 c13 -22 13 -30 2 -55
l-14 -28 -6 25 c-5 17 -14 25 -29 26 -32 2 -40 13 -19 28 9 7 17 19 17 25 0
21 34 7 49 -21z m76 -123 c0 -30 -39 -27 -43 3 -3 20 0 23 20 20 15 -2 23 -10
23 -23z m-320 -25 c3 -5 1 -10 -4 -10 -6 0 -11 5 -11 10 0 6 2 10 4 10 3 0 8
-4 11 -10z m143 -33 c4 -20 -25 -34 -40 -19 -15 15 -1 44 19 40 10 -2 19 -11
21 -21z m146 4 c14 -15 15 -24 6 -40 -13 -25 -33 -27 -54 -5 -19 19 -20 36 -4
52 17 17 32 15 52 -7z m-293 -21 c25 -14 24 -46 -1 -60 -14 -8 -26 -8 -40 0
-24 13 -26 33 -4 54 18 19 20 19 45 6z m116 -76 c3 -8 -2 -23 -11 -32 -15 -15
-17 -15 -32 0 -21 21 -11 48 16 48 11 0 23 -7 27 -16z m-83 -63 c10 -16 -6
-42 -23 -39 -9 2 -17 13 -19 26 -3 16 2 22 17 22 11 0 22 -4 25 -9z m106 -71
c0 -5 -7 -10 -15 -10 -8 0 -15 5 -15 10 0 6 7 10 15 10 8 0 15 -4 15 -10z
m107 -12 c-3 -8 -6 -5 -6 6 -1 11 2 17 5 13 3 -3 4 -12 1 -19z m-57 -41 c17
-31 4 -80 -23 -85 -15 -3 -16 0 -7 23 7 18 7 33 0 45 -26 49 2 66 30 17z m-50
-12 c0 -8 -4 -15 -10 -15 -5 0 -10 7 -10 15 0 8 5 15 10 15 6 0 10 -7 10 -15z
m-52 -317 c16 -16 15 -45 0 -50 -22 -8 -38 3 -38 26 0 35 16 46 38 24z m-121
-150 c-3 -7 -5 -2 -5 12 0 14 2 19 5 13 2 -7 2 -19 0 -25z m63 11 c0 -5 -7 -9
-15 -9 -15 0 -20 12 -9 23 8 8 24 -1 24 -14z m-100 1 c0 -5 -4 -10 -10 -10 -5
0 -10 5 -10 10 0 6 5 10 10 10 6 0 10 -4 10 -10z m130 6 c0 -3 -4 -8 -10 -11
-5 -3 -10 -1 -10 4 0 6 5 11 10 11 6 0 10 -2 10 -4z m-130 -46 c0 -5 -5 -10
-11 -10 -5 0 -7 5 -4 10 3 6 8 10 11 10 2 0 4 -4 4 -10z m50 0 c0 -5 -7 -10
-16 -10 -8 0 -12 5 -9 10 3 6 10 10 16 10 5 0 9 -4 9 -10z m45 0 c3 -5 1 -10
-4 -10 -6 0 -11 5 -11 10 0 6 2 10 4 10 3 0 8 -4 11 -10z m35 6 c0 -3 -4 -8
-10 -11 -5 -3 -10 -1 -10 4 0 6 5 11 10 11 6 0 10 -2 10 -4z m-130 -45 c0 -6
-4 -13 -10 -16 -5 -3 -10 1 -10 9 0 9 5 16 10 16 6 0 10 -4 10 -9z m44 -12
c-3 -5 -10 -7 -15 -3 -5 3 -7 10 -3 15 3 5 10 7 15 3 5 -3 7 -10 3 -15z m46 5
c0 -8 -5 -12 -10 -9 -6 4 -8 11 -5 16 9 14 15 11 15 -7z m-90 -44 c0 -5 -5
-10 -11 -10 -5 0 -7 5 -4 10 3 6 8 10 11 10 2 0 4 -4 4 -10z"/>
<path d="M778 3993 c-2 -4 -3 -42 -2 -83 1 -41 2 -138 3 -214 1 -77 3 -137 5
-135 7 7 10 428 4 435 -3 3 -8 2 -10 -3z"/>
<path d="M2451 3984 c0 -11 3 -14 6 -6 3 7 2 16 -1 19 -3 4 -6 -2 -5 -13z"/>
<path d="M3306 3973 c4 -16 13 -34 22 -40 11 -9 12 -13 3 -13 -7 0 -9 -5 -6
-11 4 -5 12 -8 18 -6 6 2 36 -57 68 -137 172 -427 256 -589 369 -716 43 -48
100 -127 100 -138 0 -7 5 -11 12 -9 7 1 13 -8 14 -20 1 -12 -3 -20 -8 -17 -4
3 -6 10 -3 15 3 5 0 6 -8 3 -8 -3 -39 21 -76 57 -63 63 -85 71 -60 22 7 -16
15 -31 17 -35 2 -4 -81 -4 -185 -2 -103 3 -192 5 -198 5 -5 0 -53 -2 -105 -4
-104 -3 -120 -8 -120 -39 0 -20 1 -20 18 -5 16 15 52 17 305 17 171 0 288 -4
292 -10 3 -5 12 -7 19 -4 8 3 22 -5 32 -19 11 -13 31 -31 46 -41 15 -10 35
-40 48 -72 12 -29 26 -54 30 -54 23 0 30 -64 30 -270 0 -121 3 -220 8 -220 4
0 9 403 10 895 l4 895 -351 0 -351 0 6 -27z m618 -274 c-3 -5 -10 -7 -15 -3
-5 3 -7 10 -3 15 3 5 10 7 15 3 5 -3 7 -10 3 -15z m18 -384 c0 -5 -5 -11 -11
-13 -6 -2 -11 4 -11 13 0 9 5 15 11 13 6 -2 11 -8 11 -13z"/>
<path d="M1345 3970 c-34 -13 -89 -81 -115 -142 -14 -32 -28 -58 -32 -58 -3 0
-12 16 -18 35 -13 38 -52 75 -81 75 -64 0 -104 -58 -97 -141 12 -146 121 -243
339 -304 52 -15 101 -29 109 -31 20 -7 -38 -55 -102 -85 -44 -21 -51 -21 -90
-8 -24 7 -50 14 -59 14 -9 0 -23 5 -30 11 -17 13 -95 44 -111 44 -6 0 21 -16
60 -35 72 -36 212 -155 212 -181 0 -8 2 -14 5 -14 12 0 55 33 55 42 0 13 83
88 98 88 6 0 12 5 12 10 0 6 7 10 15 10 8 0 15 5 15 10 0 6 9 10 21 10 11 0
17 5 14 10 -3 6 0 10 9 10 8 0 41 13 73 29 53 27 177 64 263 79 19 3 86 5 149
4 64 0 110 3 105 8 -14 13 -121 47 -206 64 -89 18 -186 21 -241 5 -22 -6 -41
-9 -43 -6 -2 2 11 24 29 48 61 82 71 128 36 173 -16 21 -29 26 -64 26 -58 0
-96 -32 -135 -116 -42 -88 -79 -88 -95 1 -12 69 -45 85 -86 43 l-22 -23 19 30
c10 17 37 57 59 89 32 47 40 68 40 104 0 66 -48 98 -110 72z m-110 -670 c27
-30 12 -34 -15 -5 -13 14 -19 25 -13 25 5 0 18 -9 28 -20z"/>
<path d="M2646 3901 c-16 -17 -16 -26 -6 -74 6 -30 25 -76 41 -103 17 -26 32
-56 34 -66 2 -10 7 -24 10 -31 3 -6 -2 -2 -11 11 -18 24 -68 30 -80 10 -4 -7
-7 -26 -6 -44 2 -19 -5 -41 -17 -55 -27 -33 -50 -17 -71 49 -38 115 -120 172
-180 124 -15 -12 -24 -32 -27 -62 -4 -45 2 -64 55 -150 21 -35 21 -35 2 -76
l-18 -42 51 -35 c29 -19 57 -37 64 -41 6 -3 28 5 49 19 20 14 50 25 66 25 109
0 294 69 355 132 84 88 110 214 57 277 -42 50 -96 35 -133 -37 l-18 -36 -18
60 c-9 32 -26 74 -37 93 -40 65 -126 92 -162 52z"/>
<path d="M3162 3890 c0 -19 2 -27 5 -17 2 9 2 25 0 35 -3 9 -5 1 -5 -18z"/>
<path d="M523 3884 c-5 -14 11 -33 28 -34 10 0 20 31 13 41 -9 15 -34 10 -41
-7z"/>
<path d="M3156 3805 c-3 -8 -1 -15 4 -15 6 0 10 7 10 15 0 8 -2 15 -4 15 -2 0
-6 -7 -10 -15z"/>
<path d="M3159 3758 c-4 -98 -3 -181 4 -185 4 -2 7 43 7 101 0 58 -2 106 -5
106 -3 0 -5 -10 -6 -22z"/>
<path d="M627 3703 c-2 -5 -7 -20 -11 -35 -5 -23 -3 -28 13 -28 14 0 20 9 23
35 3 23 0 35 -8 35 -7 0 -15 -3 -17 -7z"/>
<path d="M3090 3605 c0 -14 2 -25 4 -25 2 0 6 11 8 25 3 14 1 25 -3 25 -5 0
-9 -11 -9 -25z"/>
<path d="M3134 3559 c-3 -6 -3 -13 0 -16 3 -4 6 -1 6 6 0 7 5 9 10 6 6 -4 8
-11 5 -16 -4 -5 -1 -9 4 -9 16 0 13 27 -4 33 -8 4 -17 2 -21 -4z"/>
<path d="M3157 3441 c-2 -10 -1 -25 4 -32 6 -10 9 -4 9 19 0 36 -5 42 -13 13z"/>
<path d="M3131 3376 c-10 -11 -9 -14 1 -12 14 2 23 15 15 22 -2 2 -10 -2 -16
-10z"/>
<path d="M970 3360 c-29 -29 -37 -54 -43 -140 l-6 -75 13 81 c15 90 26 116 58
138 12 9 17 16 10 16 -6 0 -21 -9 -32 -20z"/>
<path d="M38 3362 c-29 -2 -38 -8 -38 -22 0 -18 22 -19 168 -11 6 1 12 8 12
16 0 8 -6 15 -12 16 -45 3 -98 4 -130 1z"/>
<path d="M2770 3327 c-35 -17 -96 -42 -134 -57 -38 -14 -71 -31 -74 -39 -3
-10 0 -12 12 -8 16 6 18 2 19 -40 0 -15 4 -20 15 -15 10 3 13 1 8 -6 -4 -7 -2
-12 5 -12 7 0 9 -3 6 -7 -4 -3 2 -20 12 -37 15 -25 29 -63 35 -96 1 -3 5 -11
9 -17 5 -7 4 -13 -2 -13 -5 0 -11 3 -13 8 -1 4 -16 14 -33 23 -16 9 -29 22
-27 29 2 10 -2 10 -19 -2 -13 -8 -25 -20 -27 -26 -3 -11 34 -27 58 -24 12 2
12 1 2 -6 -10 -7 -2 -16 30 -35 24 -14 36 -26 28 -27 -13 0 -13 -1 0 -10 22
-14 28 -12 26 8 0 10 6 16 17 16 19 -2 23 11 6 22 -8 4 -7 9 2 15 10 6 11 9 2
9 -13 0 -63 90 -63 113 0 8 -12 32 -26 53 l-26 39 60 55 c33 31 86 70 119 88
74 40 58 40 -27 -1z"/>
<path d="M986 3334 c-25 -24 -31 -61 -31 -181 0 -76 4 -116 13 -125 9 -10 12
4 13 67 0 66 2 77 12 62 17 -27 40 -54 33 -40 -4 6 -2 13 3 15 6 1 11 19 12
38 3 58 0 72 -13 64 -10 -6 -10 -5 -1 8 7 8 9 19 5 23 -4 5 -2 5 4 2 7 -4 17
0 24 8 10 12 9 15 -5 15 -10 0 -16 3 -12 6 3 4 27 6 52 6 25 -1 45 1 45 3 0 3
-18 14 -40 25 -47 24 -93 26 -114 4z"/>
<path d="M2845 3331 c-11 -5 -28 -17 -37 -27 -16 -18 -15 -19 12 -20 53 -2 62
-10 54 -51 -4 -21 -10 -45 -15 -54 -4 -8 -3 -22 3 -30 8 -11 9 -10 4 4 -3 10
-2 16 3 13 5 -4 7 -25 4 -49 -4 -40 -4 -41 9 -17 25 46 38 96 41 152 3 77 -21
102 -78 79z"/>
<path d="M1113 3283 c9 -2 23 -2 30 0 6 3 -1 5 -18 5 -16 0 -22 -2 -12 -5z"/>
<path d="M3161 3264 c0 -11 3 -14 6 -6 3 7 2 16 -1 19 -3 4 -6 -2 -5 -13z"/>
<path d="M1188 3243 c7 -3 16 -2 19 1 4 3 -2 6 -13 5 -11 0 -14 -3 -6 -6z"/>
<path d="M720 3220 c0 -5 7 -10 16 -10 8 0 12 5 9 10 -3 6 -10 10 -16 10 -5 0
-9 -4 -9 -10z"/>
<path d="M2108 3225 c-3 -3 -34 -8 -69 -10 -57 -4 -91 -8 -151 -18 -10 -2 -21
-6 -24 -10 -4 -4 -18 -7 -31 -7 -28 0 -29 -11 -3 -35 12 -11 20 -13 20 -6 0 7
4 10 8 7 5 -3 15 4 22 14 13 18 14 18 37 -6 13 -14 23 -31 23 -39 0 -8 8 -24
17 -35 13 -14 20 -17 30 -8 10 8 14 3 19 -21 4 -17 9 -30 11 -27 13 12 93 -91
93 -120 0 -13 5 -24 10 -24 17 0 7 -71 -11 -84 -10 -6 -23 -24 -30 -38 -10
-23 -8 -33 19 -80 33 -57 47 -46 51 41 1 17 24 -6 54 -51 10 -16 21 -28 25
-28 5 0 21 20 37 45 15 25 32 42 36 38 3 -4 4 -32 0 -60 -4 -29 -5 -53 -2 -53
10 1 71 107 71 124 0 9 -9 24 -20 33 -22 19 -25 48 -10 108 16 62 63 153 82
158 9 3 18 17 20 32 4 34 30 41 54 14 19 -21 29 -18 45 13 8 15 8 18 0 14 -6
-4 -27 5 -46 20 -19 14 -35 22 -35 18 0 -5 -4 -4 -8 2 -7 12 -126 48 -192 59
-82 14 -94 16 -102 21 -4 3 -8 0 -8 -5 0 -12 -22 -11 -31 2 -3 4 -8 5 -11 2z
m-31 -46 c21 -8 24 -12 14 -19 -11 -6 -7 -15 20 -39 51 -47 64 -40 30 16 -20
31 -20 32 -1 30 22 -1 28 -13 36 -66 3 -20 8 -39 11 -44 10 -17 25 -142 15
-132 -4 3 -12 33 -19 67 -11 54 -32 87 -55 88 -15 0 -8 -29 14 -66 26 -43 43
-150 21 -133 -7 6 -15 20 -19 32 -3 11 -16 31 -29 44 -29 32 -71 110 -79 151
-4 18 -12 30 -17 26 -17 -10 -9 29 9 42 21 16 16 16 49 3z m259 -34 c20 -18
25 -28 17 -33 -8 -5 -10 -23 -5 -57 6 -38 2 -64 -15 -114 -39 -116 -55 -86
-37 66 6 49 5 53 -17 62 -30 11 -32 5 -20 -48 5 -22 5 -43 1 -46 -11 -7 -34
91 -24 106 4 7 3 9 -3 6 -6 -4 -13 1 -16 11 -2 9 -8 25 -12 35 -6 13 -3 16 9
11 9 -3 16 -12 16 -19 0 -12 21 -25 42 -25 6 0 8 13 4 35 -6 30 -4 35 12 35
10 0 32 -11 48 -25z"/>
<path d="M1771 3161 c-11 -7 -9 -11 9 -21 12 -6 19 -14 17 -17 -3 -2 -17 3
-31 12 -24 16 -27 16 -78 -12 -29 -15 -56 -32 -60 -38 -4 -5 -8 -6 -8 -2 0 4
-6 3 -12 -3 -7 -6 -34 -25 -59 -43 -64 -44 -152 -120 -229 -195 -43 -44 -66
-60 -70 -51 -7 19 -40 20 -40 2 0 -8 4 -12 8 -9 18 11 8 -30 -13 -56 -23 -28
-38 -28 -28 0 4 10 2 13 -5 8 -8 -5 -10 -2 -6 9 6 14 7 14 18 -1 11 -14 13
-14 25 0 19 23 -4 52 -26 34 -13 -10 -14 -4 -8 47 4 33 11 65 14 70 4 6 7 17
6 25 0 8 8 21 17 28 10 7 16 17 13 22 -3 5 5 16 17 24 37 26 -2 19 -51 -9 -24
-14 -39 -19 -32 -12 6 8 7 18 3 22 -4 5 0 5 8 0 8 -5 12 -4 7 0 -10 12 -47 14
-47 3 0 -4 -6 -8 -12 -8 -7 0 1 13 17 27 l30 26 -38 -6 c-38 -6 -38 -6 -16 12
17 14 19 20 9 26 -9 5 -11 4 -6 -3 4 -7 3 -12 -3 -12 -5 0 -12 6 -15 13 -3 6
-4 3 -3 -8 1 -13 -3 -19 -12 -17 -11 2 -12 0 -3 -11 7 -8 8 -18 4 -22 -4 -5
-2 -5 4 -2 12 7 30 -38 24 -58 -1 -5 -5 -30 -7 -55 -3 -25 -10 -47 -15 -49 -6
-2 2 -13 17 -25 24 -19 28 -30 32 -90 l4 -67 -25 18 c-24 17 -56 63 -56 79 0
4 14 -5 32 -22 28 -26 29 -26 15 -4 -22 32 -22 51 1 44 9 -3 0 9 -20 28 -20
18 -48 53 -62 78 -38 67 -34 48 12 -60 8 -19 17 -38 19 -42 2 -5 1 -8 -2 -8
-10 0 -71 139 -90 205 -10 33 -21 83 -25 110 -6 42 -8 44 -9 15 -1 -40 28
-156 54 -215 22 -50 20 -82 -9 -198 -37 -143 -39 -176 -21 -342 9 -85 15 -204
13 -265 -3 -103 -2 -111 17 -116 11 -3 28 -16 38 -28 11 -12 17 -15 14 -6 -5
20 71 100 96 100 11 0 18 -3 15 -6 -4 -3 0 -17 7 -31 15 -29 3 -69 -17 -57 -6
4 -8 3 -4 -4 3 -6 2 -13 -4 -17 -5 -3 -10 -1 -10 5 0 6 -10 4 -22 -6 -16 -12
-23 -28 -25 -56 -3 -75 -5 -88 -17 -81 -6 4 -5 0 2 -9 11 -14 10 -17 -7 -23
-13 -4 -18 -11 -14 -22 4 -10 2 -14 -5 -9 -6 3 -14 1 -18 -5 -4 -7 -3 -9 4 -5
6 3 14 2 17 -4 4 -6 16 -8 28 -5 19 5 20 5 5 -5 -28 -17 -21 -28 15 -26 39 2
81 -39 56 -56 -18 -12 -80 -40 -99 -43 -8 -2 -17 -4 -20 -5 -12 -5 -57 -2 -83
5 l-28 7 3 -68 3 -69 83 -3 c56 -2 82 -7 82 -15 0 -10 52 124 67 176 7 24 22
21 28 -6 4 -14 -6 -48 -25 -91 -17 -37 -47 -127 -66 -199 -33 -128 -34 -130
-28 -62 l6 70 -19 -30 c-26 -41 -52 -98 -56 -121 -1 -11 -6 -24 -10 -31 -4 -6
-3 -15 3 -18 7 -4 7 -11 2 -18 -5 -7 -8 -21 -6 -32 2 -11 1 -27 -3 -35 -3 -8
-5 -28 -4 -44 2 -19 -1 -26 -9 -21 -8 5 -7 1 1 -13 11 -17 10 -24 -2 -38 -8
-10 -9 -15 -4 -12 6 3 11 -5 11 -18 2 -25 2 -25 -16 -4 -9 11 -22 20 -28 20
-6 0 -14 9 -17 20 -4 11 -11 18 -16 15 -5 -4 -8 4 -6 17 1 14 -3 22 -10 21 -7
-2 -10 4 -7 12 4 9 2 21 -4 28 -5 6 -13 32 -17 56 l-7 43 -27 -28 c-14 -16
-25 -32 -23 -36 1 -5 -4 -8 -10 -8 -33 -1 -108 -95 -148 -184 -20 -46 -21 -49
-4 -65 9 -9 14 -10 10 -3 -10 17 0 15 31 -5 14 -10 34 -19 45 -20 10 -2 35
-10 56 -20 20 -9 40 -16 43 -15 17 3 120 -110 125 -138 4 -16 10 -30 14 -30
10 0 6 -112 -5 -129 -6 -10 -4 -12 4 -6 10 6 11 3 2 -13 -6 -11 -11 -28 -11
-36 0 -9 -9 -25 -20 -36 -11 -11 -20 -15 -20 -9 0 7 -11 4 -26 -6 -15 -9 -29
-13 -33 -9 -12 17 -30 14 -24 -4 6 -15 5 -15 -10 -3 -11 9 -17 10 -17 2 0 -6
-7 -11 -15 -11 -8 0 -15 -4 -15 -9 0 -6 -9 -8 -20 -6 -11 2 -22 -1 -26 -6 -3
-6 -12 -5 -22 3 -12 10 -14 10 -8 1 4 -7 2 -13 -3 -13 -6 0 -11 4 -11 8 0 5
-15 8 -32 7 -48 -2 -64 4 -76 29 -6 14 -27 28 -58 38 -26 8 -50 20 -51 25 -7
19 31 9 95 -24 70 -36 103 -41 126 -17 25 25 33 46 35 99 2 43 -2 55 -24 79
-28 30 -31 30 -125 6 -45 -11 -91 -44 -89 -64 3 -23 -1 -35 -17 -50 -20 -21
-41 -21 -24 -1 10 12 10 18 -1 31 -17 21 -64 44 -89 44 -18 0 -20 4 -14 23 9
31 14 34 24 17 6 -8 10 -11 10 -6 0 5 7 3 15 -4 18 -15 73 -16 87 -2 23 23
-55 112 -97 112 -14 0 -16 -7 -13 -35 6 -53 -12 -25 -21 31 l-7 49 -14 -40
c-7 -22 -20 -45 -28 -51 -13 -9 -13 -20 1 -89 9 -43 20 -81 25 -84 11 -7 32
-46 32 -59 0 -5 -19 -14 -41 -21 -46 -14 -97 -57 -83 -71 5 -5 45 -12 89 -15
98 -8 292 -39 302 -49 9 -9 -9 -27 -23 -22 -9 3 -11 -1 -8 -12 5 -15 4 -15 -9
1 -8 10 -18 14 -21 9 -6 -11 -46 -10 -63 1 -9 6 -11 3 -6 -8 5 -16 3 -16 -24
-2 -23 12 -33 13 -42 4 -8 -8 -11 -8 -11 1 0 8 -7 9 -24 2 -14 -5 -34 -7 -45
-5 -11 2 -23 -1 -27 -6 -4 -6 -12 -4 -23 5 -14 13 -20 13 -43 2 -15 -8 -29
-11 -33 -8 -10 10 -105 10 -105 0 0 -5 -9 -4 -20 2 -15 8 -20 8 -20 -2 0 -9
-3 -9 -8 -2 -4 5 -17 10 -29 10 -17 0 -23 -6 -23 -23 0 -20 5 -23 38 -24 42 0
270 2 379 5 l72 1 -16 -25 c-9 -14 -27 -40 -40 -58 -16 -21 -19 -32 -11 -32 7
0 31 26 53 58 l39 58 196 -1 c201 -1 193 0 417 -57 39 -10 41 -12 32 -35 -7
-19 -6 -24 3 -21 7 3 14 14 16 26 4 23 12 27 27 13 15 -13 146 -31 227 -31 85
0 174 19 249 54 94 42 121 48 259 53 146 5 196 -1 357 -44 86 -24 103 -32 108
-50 3 -13 10 -23 16 -23 6 0 8 9 4 22 -6 17 -4 20 10 14 10 -3 61 -11 115 -17
117 -14 256 -1 326 31 26 11 50 20 53 20 4 0 15 -16 24 -35 25 -52 39 -42 16
11 -34 76 -40 75 287 70 283 -4 284 -4 305 -27 l20 -24 -17 28 c-34 56 -5 36
40 -28 26 -36 51 -65 57 -65 14 0 11 7 -26 59 -19 26 -35 50 -35 52 0 2 90 3
200 1 198 -3 200 -3 200 18 0 20 -4 21 -40 16 -25 -3 -49 -1 -61 7 -14 9 -24
9 -37 1 -12 -8 -26 -8 -46 -1 -21 7 -30 6 -37 -4 -7 -12 -9 -12 -9 0 0 11 -3
11 -15 1 -8 -7 -20 -8 -27 -4 -17 11 -121 12 -129 1 -4 -5 -16 -4 -27 2 -13 7
-23 7 -27 2 -5 -10 -37 -7 -55 4 -6 3 -10 1 -10 -6 0 -9 -4 -9 -15 1 -8 6 -19
9 -25 5 -15 -9 -98 -11 -106 -2 -11 11 -36 8 -29 -3 3 -5 2 -10 -4 -10 -5 0
-12 4 -16 9 -7 12 -46 11 -62 -2 -8 -6 -13 -6 -13 0 0 12 -89 11 -107 0 -9 -6
-11 -3 -7 8 5 12 1 15 -17 12 -13 -2 -37 -1 -54 3 -22 5 -5 9 60 14 247 20
296 25 364 42 53 13 77 24 88 41 8 12 20 20 27 17 6 -3 1 3 -12 13 -22 18 -22
20 -7 33 34 29 75 114 75 158 0 24 -4 41 -9 38 -5 -4 -14 6 -19 21 -9 24 -11
25 -11 6 -1 -12 -4 -29 -8 -39 -5 -14 -2 -16 18 -11 l24 6 -24 -18 c-16 -13
-20 -20 -11 -23 9 -3 11 -13 6 -34 -8 -27 -9 -28 -16 -7 -7 16 -14 20 -32 16
-35 -9 -69 -34 -77 -57 -8 -20 -8 -20 -21 4 -11 20 -10 25 6 37 12 9 14 13 4
13 -8 0 -24 10 -37 22 l-23 22 30 25 c21 18 32 39 36 69 6 39 5 42 -16 42 -31
0 -89 -46 -106 -84 -7 -17 -13 -26 -14 -21 0 17 -77 5 -95 -15 -13 -15 -15
-31 -9 -93 6 -72 8 -76 39 -93 32 -17 34 -17 76 5 24 13 58 31 75 42 31 19 31
19 49 -1 19 -21 45 -27 45 -10 0 6 10 10 23 10 21 0 21 -1 -7 -23 -29 -23 -30
-23 -48 -5 -27 27 -74 15 -113 -27 -26 -28 -36 -32 -77 -30 -27 1 -48 -3 -48
-7 0 -5 -5 -6 -10 -3 -6 4 -8 10 -5 15 6 10 -36 1 -51 -12 -8 -6 -11 -3 -10 9
1 14 -8 19 -36 21 -21 2 -38 -1 -38 -6 0 -17 -30 -9 -36 10 -3 10 -10 16 -15
13 -5 -4 -9 -1 -9 5 0 7 -6 10 -12 7 -10 -3 -13 22 -13 108 0 80 -4 117 -14
128 -7 10 -11 27 -7 40 6 24 46 77 46 61 0 -5 4 -4 8 1 9 13 42 34 65 41 9 4
17 11 17 16 0 5 4 7 9 3 5 -3 12 -1 16 5 4 6 11 8 16 5 5 -4 9 -1 9 6 0 7 3
10 6 6 3 -3 14 3 25 14 19 19 19 20 -10 63 -17 24 -27 46 -24 50 4 3 1 6 -6 6
-8 0 -11 7 -7 15 3 8 1 15 -4 15 -6 0 -10 7 -10 15 0 8 -4 15 -10 15 -5 0 -10
7 -10 15 0 8 -3 15 -7 15 -12 0 -57 69 -50 76 3 3 20 -8 38 -25 17 -17 36 -31
41 -31 5 0 7 -4 3 -9 -12 -20 40 -16 56 4 33 42 94 175 105 230 25 124 23 249
-6 304 -21 42 -63 71 -102 71 -36 -1 -103 -35 -127 -66 -13 -16 -25 -28 -27
-26 -6 4 -34 -24 -34 -35 0 -4 -14 -21 -30 -37 -18 -18 -30 -40 -30 -55 0 -18
3 -22 9 -13 7 11 9 11 14 -2 4 -9 3 -15 -1 -14 -4 1 -17 -3 -29 -10 -27 -15
-33 -65 -8 -56 11 5 13 2 9 -10 -4 -12 0 -16 16 -16 11 0 19 -4 16 -8 -3 -5 4
-15 15 -22 10 -8 19 -20 19 -27 0 -7 5 -13 11 -13 5 0 8 -4 4 -9 -3 -5 -1 -12
4 -16 5 -3 9 -13 9 -23 0 -9 3 -25 7 -34 4 -11 3 -18 -4 -18 -7 0 -7 -8 -1
-26 9 -22 8 -25 -6 -20 -12 5 -15 2 -10 -10 7 -18 -13 -106 -26 -115 -6 -3 -9
-9 -9 -13 3 -21 0 -36 -6 -34 -5 2 -9 -1 -10 -6 -1 -5 -7 -12 -15 -17 -15 -10
-15 -10 -58 219 -32 171 -54 247 -45 157 5 -42 1 -36 -23 45 -59 195 -72 280
-44 280 4 0 15 -19 23 -42 16 -43 16 -43 65 -43 41 0 50 4 60 23 17 34 72 94
111 120 37 25 54 30 153 40 9 1 2 14 -21 40 -20 20 -42 48 -51 62 -22 37 -58
146 -58 178 0 15 -6 34 -12 41 -9 9 -9 12 -1 7 8 -4 10 4 8 26 -2 18 -4 44 -4
57 -1 20 -3 22 -16 11 -14 -12 -14 -15 1 -31 18 -20 6 -27 -13 -8 -14 14 -12
-12 3 -32 5 -8 9 -25 7 -39 -1 -14 -5 -62 -9 -108 -6 -76 -5 -86 14 -112 28
-37 28 -44 -5 -75 -32 -29 -40 -31 -45 -10 -3 13 -7 13 -33 -2 -84 -46 -121
-61 -129 -52 -6 5 -24 -6 -48 -32 -21 -22 -38 -36 -38 -31 0 5 -16 -5 -37 -24
-20 -18 -40 -31 -45 -28 -4 3 -8 0 -8 -5 0 -6 -21 -20 -47 -32 -27 -11 -66
-28 -88 -39 -55 -25 -76 -32 -105 -37 -13 -2 -29 -8 -35 -12 -13 -11 -78 -23
-139 -27 -50 -2 -126 25 -126 46 0 5 -13 24 -29 43 -16 18 -33 45 -36 60 -4
15 -11 27 -16 27 -5 0 -9 16 -9 36 0 19 -4 33 -9 30 -5 -3 -7 -15 -4 -26 3
-11 0 -41 -6 -68 -13 -51 -52 -93 -108 -118 -39 -17 -163 -30 -163 -17 0 5
-13 8 -30 5 -19 -3 -30 0 -30 7 0 7 -5 9 -10 6 -6 -4 -17 -1 -25 5 -8 7 -15 9
-15 5 0 -4 -6 -2 -14 4 -8 6 -18 11 -22 10 -5 -1 -18 1 -29 5 -11 5 -27 10
-35 14 -8 3 -17 6 -20 7 -23 5 -70 38 -70 48 0 8 -3 8 -9 -2 -7 -10 -12 -8
-25 10 -15 22 -16 22 -16 4 -1 -19 -1 -19 -11 -2 -6 9 -14 15 -20 12 -5 -4 -9
1 -9 10 0 11 -5 15 -15 11 -9 -3 -18 1 -21 9 -4 8 -12 15 -20 15 -8 0 -14 8
-14 17 0 9 -2 14 -6 11 -6 -7 -94 78 -94 92 0 5 -4 10 -9 10 -9 0 -51 100 -51
120 0 21 18 8 43 -31 15 -22 24 -46 20 -52 -4 -7 2 -5 12 3 11 9 16 10 11 3
-4 -8 -2 -13 5 -13 7 0 10 -3 6 -6 -11 -12 17 -33 30 -22 10 8 10 15 1 32 -18
31 -21 58 -6 51 7 -4 4 1 -7 10 -20 16 -20 16 2 21 23 6 38 29 42 65 1 8 6 7
16 -1 9 -7 12 -16 7 -19 -6 -3 -4 -12 4 -19 12 -11 14 -10 14 3 0 9 5 13 10
10 6 -4 8 -9 6 -13 -2 -4 18 -7 45 -6 27 0 49 -4 49 -9 0 -4 4 -6 9 -2 5 3 17
-3 27 -12 14 -14 18 -15 22 -4 3 8 7 10 11 3 8 -13 36 -20 143 -36 14 -2 34
-7 45 -10 10 -3 40 -8 67 -11 27 -3 63 -12 81 -20 29 -14 47 -17 115 -14 l25
0 -26 14 c-15 8 -39 17 -55 20 -40 7 -112 34 -94 35 13 0 13 2 1 9 -8 5 -21 7
-30 4 -10 -4 -8 2 7 16 22 22 31 48 12 36 -5 -3 -10 1 -10 10 0 9 -4 13 -10
10 -5 -3 -10 -1 -10 5 0 6 -5 8 -12 4 -7 -5 -9 -2 -5 9 4 11 -1 18 -16 22 -12
4 -32 19 -45 33 -19 23 -24 25 -33 12 -8 -12 -9 -11 -5 6 4 13 -1 27 -14 39
-11 10 -20 14 -20 10 0 -5 -7 0 -15 11 -8 10 -15 15 -15 9 0 -5 -10 -21 -21
-35 l-20 -25 15 31 c16 34 13 44 -14 44 -10 0 -23 7 -30 15 -7 9 -15 13 -18
10 -3 -3 -14 3 -25 12 -18 17 -20 17 -44 -12 -14 -17 -22 -23 -18 -15 5 8 17
25 27 36 19 22 19 22 -1 36 -12 8 -18 19 -14 24 4 5 -12 -9 -37 -31 -25 -22
-35 -29 -24 -15 29 35 40 55 25 46 -7 -5 -22 3 -36 18 -17 18 -20 26 -10 26 8
0 15 4 15 10 0 5 -7 7 -15 4 -11 -4 -13 -2 -9 9 4 12 12 13 32 7 15 -5 43 -11
62 -14 19 -2 49 -9 65 -13 63 -19 125 1 194 63 17 15 28 31 25 35 -3 5 3 9 13
10 11 0 13 3 5 6 -8 3 -5 11 10 24 33 27 17 23 -22 -6 -22 -16 -41 -23 -53
-19 -14 4 -17 3 -12 -6 5 -9 4 -11 -3 -6 -6 4 -21 2 -32 -4 -30 -16 -24 -3 8
15 l27 16 -30 -7 c-44 -11 -145 -13 -139 -3 3 5 -3 9 -13 9 -10 0 -29 12 -43
26 -25 27 -35 54 -19 54 5 0 8 3 8 8 -5 27 3 52 16 52 8 0 15 -4 15 -9 0 -15
93 -81 115 -81 11 0 36 -11 53 -24 31 -22 36 -23 75 -11 55 17 97 36 97 45 0
4 -17 11 -37 15 -21 4 -54 15 -73 24 -19 10 -51 26 -71 35 -35 17 -69 53 -81
87 -4 9 2 34 12 57 15 32 30 47 69 66 l51 24 21 -48 c49 -113 173 -159 301
-110 29 11 62 17 75 14 22 -6 23 -8 8 -24 -14 -16 -13 -17 16 -18 17 0 40 -7
52 -15 39 -26 127 -116 137 -139 5 -13 9 -17 10 -8 0 8 20 37 45 65 25 27 45
55 45 61 0 25 25 34 54 19 40 -21 42 -19 7 11 -42 35 -39 49 5 19 102 -69 226
-25 241 86 5 35 7 37 27 27 46 -24 94 -69 111 -104 15 -33 15 -37 0 -60 -38
-59 -53 -67 -144 -76 -10 -1 -9 -5 5 -15 10 -7 12 -13 6 -13 -20 0 18 -35 63
-58 41 -22 27 -30 -20 -12 -19 7 -24 7 -19 -2 5 -8 2 -9 -9 -5 -14 5 -15 3 -4
-13 6 -11 15 -20 19 -20 5 0 8 -7 8 -16 0 -8 15 -20 33 -26 17 -7 56 -24 86
-40 30 -16 55 -27 56 -26 13 15 39 78 41 98 1 14 3 25 4 25 7 0 15 94 11 148
0 9 -9 17 -18 17 -15 0 -15 1 2 13 23 18 13 72 -12 63 -13 -6 -14 -4 -3 10 12
13 11 17 -1 25 -8 5 -18 8 -24 8 -5 0 -4 -3 3 -6 6 -2 12 -9 12 -15 0 -6 -9
-3 -20 7 -11 10 -18 20 -16 23 3 2 -1 11 -7 19 -44 53 -77 73 -122 73 -27 0
-44 25 -52 74 -8 49 -21 66 -70 87 -36 15 -52 17 -82 9 -97 -26 -153 -95 -159
-196 -4 -66 -9 -72 -42 -54 -19 10 -19 9 1 -24 20 -34 20 -34 0 -29 -11 3 -28
0 -38 -6 -17 -10 -16 -10 5 -11 25 0 30 -15 8 -23 -20 -8 -86 3 -86 14 0 5 10
9 23 9 20 1 21 1 4 11 -10 6 -29 8 -42 5 -28 -7 -55 2 -55 18 0 23 -22 35 -45
26 -32 -12 -43 4 -54 82 -12 88 -51 161 -103 195 -55 37 -149 39 -220 5 -27
-12 -48 -27 -48 -32 0 -6 -7 -10 -15 -10 -8 0 -15 -7 -15 -15 0 -8 -5 -15 -10
-15 -6 0 -9 -3 -9 -7 5 -32 -30 -53 -90 -53 -27 0 -45 -7 -60 -22 -91 -97
-136 -147 -154 -172 -39 -51 -56 -66 -71 -60 -9 4 -13 15 -10 31 3 18 1 23 -8
18 -7 -4 -4 1 6 9 11 9 15 16 9 16 -14 0 -4 37 26 99 11 25 19 46 17 49 -3 2
5 15 17 28 36 38 48 53 46 59 -4 11 25 75 33 75 4 0 8 9 8 20 0 11 5 20 10 20
6 0 9 4 8 9 -4 11 103 117 114 114 4 -2 8 3 8 11 0 8 9 18 20 21 11 3 46 24
77 45 32 21 61 36 65 34 3 -2 9 0 13 6 4 6 11 8 16 5 5 -4 9 -1 9 6 0 7 3 10
6 7 3 -4 21 0 40 8 19 8 37 15 41 15 10 1 5 20 -9 36 -12 15 -18 16 -37 4z
m109 -431 c0 -5 6 -10 14 -10 20 0 27 -27 10 -40 -26 -22 -81 29 -57 53 10 11
33 8 33 -3z m-833 -22 c-3 -8 -6 -5 -6 6 -1 11 2 17 5 13 3 -3 4 -12 1 -19z
m1453 -19 c0 -5 4 -8 9 -4 11 6 36 -33 27 -43 -3 -3 -6 0 -6 7 0 7 -7 10 -19
6 -20 -6 -46 18 -36 35 8 13 25 13 25 -1z m-1431 -31 c6 -17 9 -33 6 -36 -2
-3 -7 4 -10 14 -4 10 -11 27 -16 37 -5 10 -5 17 0 17 5 0 14 -14 20 -32z m678
-30 c-3 -8 -6 -5 -6 6 -1 11 2 17 5 13 3 -3 4 -12 1 -19z m14 -44 c35 -42 116
-57 157 -29 17 13 26 13 43 5 l21 -12 -21 -22 c-12 -12 -18 -25 -15 -29 3 -3
-4 -3 -17 0 -14 4 -20 2 -16 -4 10 -16 -93 -9 -135 9 -20 9 -44 27 -52 41 -28
41 4 79 35 41z m232 -9 c-3 -9 -8 -14 -10 -11 -3 3 -2 9 2 15 9 16 15 13 8 -4z
m464 -54 c31 -16 55 -14 107 8 l45 20 -10 -27 c-9 -25 -8 -26 6 -8 8 11 15 15
15 10 0 -6 -12 -21 -27 -35 -14 -13 -23 -18 -19 -12 5 9 2 11 -8 7 -9 -3 -14
-9 -12 -13 2 -3 -16 -7 -40 -9 -74 -5 -124 33 -124 95 l1 28 22 -26 c12 -15
32 -32 44 -38z m-476 -4 c-13 -12 -20 -15 -16 -7 14 26 28 41 33 35 3 -3 -5
-16 -17 -28z m-897 -59 c-10 -41 -12 -223 -3 -240 6 -11 5 -19 -3 -24 -7 -4
-10 -4 -6 1 4 4 3 14 -2 20 -19 23 -15 222 5 255 10 17 14 11 9 -12z m1759
-120 c-1 -18 -2 -36 -2 -40 -2 -16 -46 -7 -68 14 l-24 23 48 17 c26 9 48 17
48 17 0 1 -1 -14 -2 -31z m-1273 -103 c0 -2 -10 -9 -22 -15 -22 -11 -22 -10
-4 4 21 17 26 19 26 11z m1321 -19 c-1 -3 -4 -6 -8 -7 -5 0 -14 -5 -20 -11
-19 -15 -16 -2 3 17 15 15 27 15 25 1z m-1271 0 c0 -2 -8 -10 -17 -17 -16 -13
-17 -12 -4 4 13 16 21 21 21 13z m1160 -22 c0 -2 -9 0 -20 6 -11 6 -20 13 -20
16 0 2 9 0 20 -6 11 -6 20 -13 20 -16z m-1280 -9 c-13 -14 -27 -25 -32 -25 -9
0 42 49 51 50 3 0 -6 -11 -19 -25z m1380 -62 c0 -7 -35 16 -65 42 -23 20 -18
19 18 -6 26 -18 47 -34 47 -36z m-1359 -230 c-12 -20 -14 -14 -5 12 4 9 9 14
11 11 3 -2 0 -13 -6 -23z m-391 -87 c0 -3 -4 -8 -10 -11 -5 -3 -10 -1 -10 4 0
6 5 11 10 11 6 0 10 -2 10 -4z m106 -23 c-4 -4 -12 -1 -19 7 -9 10 -9 11 1 6
7 -4 12 -2 13 6 0 11 2 11 6 0 3 -7 2 -16 -1 -19z m-156 -37 c0 -2 -7 -6 -15
-10 -8 -3 -15 -1 -15 4 0 6 7 10 15 10 8 0 15 -2 15 -4z m1734 -180 c-3 -9
-10 -16 -15 -16 -5 0 -4 9 3 20 14 22 21 20 12 -4z m-749 -173 c-2 -10 -4 -21
-4 -24 -1 -4 -11 -9 -24 -11 -20 -4 -23 -1 -19 19 3 15 10 22 18 19 7 -3 16
-1 19 4 9 15 14 12 10 -7z m985 -47 c0 -2 -7 -7 -16 -10 -8 -3 -12 -2 -9 4 6
10 25 14 25 6z m-1097 -51 c47 -47 87 -47 131 -2 31 30 56 36 81 17 6 -4 43
-8 83 -8 41 0 78 -4 84 -10 8 -8 14 -75 8 -92 -1 -3 -2 -31 -3 -62 -1 -31 -6
-60 -10 -64 -4 -4 -2 -13 4 -21 9 -10 8 -13 -1 -13 -7 0 -10 -7 -6 -15 3 -8 1
-15 -5 -15 -6 0 -8 -4 -4 -9 3 -5 1 -12 -5 -16 -6 -4 -8 -10 -5 -15 3 -5 1
-18 -4 -28 -5 -10 -12 -32 -15 -48 -2 -16 -5 -30 -5 -31 -1 -2 -1 -5 -1 -8 0
-3 -7 -19 -15 -35 -9 -17 -13 -30 -11 -30 3 0 -1 -15 -9 -34 -8 -18 -11 -37
-7 -41 4 -3 3 -6 -3 -5 -19 4 -30 0 -19 -8 7 -4 1 -15 -17 -30 -25 -20 -28
-21 -23 -5 4 14 1 12 -15 -6 -21 -23 -22 -23 -36 -5 -14 18 -14 18 -9 -2 3
-12 -1 -26 -12 -35 -15 -12 -16 -12 -9 0 6 11 2 13 -19 9 -14 -3 -26 -1 -26 4
0 5 -5 6 -10 3 -6 -4 -17 -1 -25 5 -8 7 -20 8 -27 4 -18 -12 -51 -5 -64 12 -9
11 -18 12 -38 4 -35 -13 -35 -13 -29 10 3 12 0 20 -7 20 -14 0 -66 40 -54 41
5 1 13 1 18 0 5 -1 4 5 -4 13 -7 9 -9 16 -4 16 4 0 3 5 -4 12 -8 8 -9 15 -1
25 9 10 8 13 -1 13 -8 0 -10 3 -7 7 4 3 0 14 -9 24 -10 11 -12 19 -5 24 7 4 8
12 1 24 -5 10 -6 21 -3 25 3 3 2 6 -3 6 -6 0 -11 19 -13 42 -1 22 -6 49 -11
58 -5 10 -6 20 -3 24 3 3 2 6 -3 6 -5 0 -10 17 -11 38 -1 48 -11 131 -18 142
-3 5 -1 11 5 15 6 4 8 10 5 15 -3 5 0 12 6 16 8 4 7 9 -2 15 -10 6 -5 9 16 9
43 1 106 11 130 20 33 14 42 11 78 -25z m37 31 c0 -3 -4 -8 -10 -11 -5 -3 -10
-1 -10 4 0 6 5 11 10 11 6 0 10 -2 10 -4z m-340 -46 c0 -5 -5 -10 -11 -10 -5
0 -7 5 -4 10 3 6 8 10 11 10 2 0 4 -4 4 -10z m1468 -201 c-2 -6 -8 -10 -13
-10 -5 0 -11 4 -13 10 -2 6 4 11 13 11 9 0 15 -5 13 -11z m-2322 -224 c-11 -8
-22 -12 -25 -9 -6 6 19 24 34 24 6 -1 1 -7 -9 -15z m88 -66 c-3 -5 3 -6 13 -2
14 5 16 3 6 -7 -12 -13 -68 -6 -59 8 3 5 -9 17 -26 27 -28 16 -29 19 -14 30
14 11 22 8 51 -18 19 -16 32 -34 29 -38z m2244 56 c-2 -5 -7 -9 -11 -7 -5 1
-6 -2 -3 -7 8 -12 -56 -59 -105 -76 -51 -18 -49 -18 -49 -1 0 24 62 75 98 82
18 3 35 11 38 16 8 12 36 6 32 -7z m-2025 -150 c1 -5 -6 -11 -15 -13 -11 -2
-18 3 -18 13 0 17 30 18 33 0z m486 -28 c92 -26 118 -37 90 -37 -8 -1 2 -8 21
-18 19 -9 36 -24 38 -31 2 -8 11 -20 20 -28 9 -7 13 -13 8 -13 -5 0 -4 -6 2
-13 10 -12 18 -41 27 -100 3 -18 0 -25 -7 -21 -8 5 -9 -2 -4 -21 6 -25 5 -27
-8 -16 -14 12 -15 9 -10 -20 6 -34 6 -34 -11 -11 -11 15 -23 21 -34 17 -10 -3
-24 1 -30 9 -7 8 -26 18 -42 21 -16 4 -29 10 -29 14 0 4 -6 9 -12 10 -39 6
-98 12 -130 15 -21 1 -40 5 -44 8 -3 4 -16 3 -28 -1 -11 -4 -32 -5 -46 -1 -14
4 -39 1 -57 -6 -22 -9 -33 -9 -33 -2 0 6 -11 3 -25 -6 -14 -9 -25 -14 -25 -11
0 3 -15 -1 -34 -9 -26 -11 -37 -11 -46 -3 -8 9 -10 7 -5 -8 4 -11 -1 -8 -10 8
-8 15 -19 27 -24 27 -18 0 -32 -29 -25 -55 6 -24 4 -26 -17 -23 -27 3 -53 43
-46 70 3 10 2 16 -3 13 -19 -12 -20 39 -2 85 3 8 6 19 6 23 1 5 9 14 18 21 10
7 15 16 12 19 -4 3 6 9 20 13 15 3 25 9 22 11 -7 7 20 33 32 33 6 0 12 4 14 8
3 7 73 31 153 51 60 16 207 5 304 -22z m1204 0 c9 -1 17 -4 17 -7 0 -3 12 -6
27 -7 15 0 32 -8 39 -17 6 -9 19 -16 29 -16 10 0 15 -3 12 -6 -4 -4 6 -19 22
-33 29 -26 47 -69 45 -106 -1 -11 -2 -30 -3 -43 0 -13 -5 -21 -10 -18 -4 3 -6
-7 -4 -22 4 -23 3 -25 -7 -9 -8 12 -16 15 -23 9 -13 -11 -47 -8 -56 5 -3 4
-17 9 -31 10 -14 1 -54 5 -90 8 -75 7 -74 7 -120 1 -57 -8 -67 -11 -86 -26
-15 -13 -16 -13 -9 -1 6 11 4 13 -11 7 -10 -4 -31 -10 -47 -13 -15 -3 -30 -10
-33 -14 -3 -5 -11 -9 -19 -9 -21 0 -85 -46 -77 -55 4 -5 1 -5 -6 0 -10 5 -11
10 -3 18 15 15 14 27 -1 22 -7 -3 -24 11 -37 30 -13 19 -27 32 -32 29 -5 -3
-6 -10 -3 -16 4 -7 2 -8 -4 -4 -7 4 -12 0 -13 -11 0 -11 -3 -13 -6 -5 -2 6
-10 9 -16 6 -7 -3 -2 3 9 13 31 26 37 61 12 74 -15 8 -17 13 -7 25 6 8 8 14 4
14 -4 0 3 9 16 21 13 11 18 17 10 13 -9 -5 -12 -3 -7 4 4 7 14 12 22 12 8 0
14 6 14 14 0 8 9 18 20 21 11 3 20 11 20 17 0 6 3 9 6 5 3 -3 24 5 45 19 21
13 47 24 57 24 10 0 22 3 26 7 18 19 165 31 236 19 30 -5 63 -9 73 -9z m-958
3 c-3 -5 -12 -10 -18 -10 -7 0 -6 4 3 10 19 12 23 12 15 0z m202 -102 c88 0
122 -3 115 -10 -11 -11 -259 -15 -269 -4 -9 8 8 27 19 20 5 -4 66 -6 135 -6z
m209 -133 c-1 -8 -8 -21 -16 -28 -10 -10 -11 -9 -4 3 5 8 9 18 10 23 3 14 4
17 8 17 2 0 3 -7 2 -15z m-156 -36 c-33 -9 -140 -10 -164 0 -10 4 28 7 85 7
59 0 93 -3 79 -7z m-700 -19 c0 -4 -14 -14 -31 -23 l-32 -15 51 -7 c53 -7 92
0 92 16 0 5 -4 9 -10 9 -15 0 -12 27 5 33 8 4 24 4 37 1 13 -3 34 -7 48 -10
14 -3 36 -13 50 -22 14 -9 42 -25 62 -35 20 -10 42 -25 48 -32 18 -22 23 -126
8 -154 -17 -33 -38 -38 -38 -11 0 21 -1 21 -34 -7 -18 -15 -31 -31 -29 -35 4
-8 2 -9 -32 -13 -12 -1 -30 -6 -40 -12 -11 -5 -36 -7 -55 -4 -32 5 -36 10 -44
49 -12 56 -26 54 -26 -4 l0 -47 -37 6 c-40 6 -74 14 -83 18 -7 3 -23 7 -38 8
-7 0 -11 4 -9 8 3 5 -1 14 -9 21 -12 11 -14 10 -14 -5 -1 -13 -5 -11 -16 10
-8 15 -19 25 -24 22 -4 -3 -18 7 -29 21 -62 79 35 218 151 219 27 0 48 3 48 7
0 4 7 5 15 2 8 -4 15 -10 15 -14z m2180 16 c0 -2 -8 -10 -17 -17 -16 -13 -17
-12 -4 4 13 16 21 21 21 13z m-896 -38 c-4 -13 2 -21 19 -27 52 -20 95 18 45
39 -18 7 -11 9 32 9 77 1 178 -51 196 -100 18 -49 17 -96 -3 -125 l-17 -26
-17 23 -17 22 -7 -24 c-7 -22 -45 -78 -45 -66 0 3 -21 -1 -46 -9 -26 -7 -50
-12 -54 -9 -4 3 -5 26 -2 51 3 34 2 45 -7 40 -6 -4 -11 -16 -11 -26 0 -55 -43
-87 -102 -74 -13 2 -35 5 -50 6 -16 1 -28 5 -28 10 0 4 -3 7 -7 6 -21 -4 -63
16 -68 33 -7 21 -25 26 -25 7 -1 -8 -6 -6 -14 4 -13 18 -42 26 -31 9 3 -5 0
-13 -6 -17 -8 -4 -9 -3 -5 4 4 7 3 12 -2 12 -5 0 -9 6 -10 13 -1 6 -4 26 -8
42 -3 20 1 46 12 73 16 35 28 46 79 69 70 32 127 48 173 49 27 1 31 -2 26 -18z
m-359 2 c3 -6 -1 -7 -9 -4 -18 7 -21 14 -7 14 6 0 13 -4 16 -10z m-48 -26 c-3
-3 -12 -4 -19 -1 -8 3 -5 6 6 6 11 1 17 -2 13 -5z m11 -49 c-3 -3 -9 2 -12 12
-6 14 -5 15 5 6 7 -7 10 -15 7 -18z m-1160 -51 c-7 -15 -14 -21 -16 -15 -2 7
2 18 8 26 18 22 21 18 8 -11z m-1 -56 c-3 -8 -6 -5 -6 6 -1 11 2 17 5 13 3 -3
4 -12 1 -19z m-451 0 c5 -8 2 -9 -9 -5 -9 3 -23 -1 -32 -9 -16 -17 -18 -14 -9
10 7 19 40 21 50 4z m524 -81 c0 -16 -18 3 -23 25 -6 22 -5 22 8 4 8 -11 15
-24 15 -29z"/>
<path d="M2123 1168 c-34 -9 -63 -49 -63 -88 0 -12 13 -35 29 -51 82 -81 202
24 130 115 -11 14 -25 26 -31 26 -7 0 -7 -5 1 -13 8 -11 6 -18 -9 -32 -11 -10
-20 -24 -20 -32 0 -12 -2 -12 -15 1 -17 17 -20 36 -5 36 6 0 10 6 10 14 0 8 5
16 12 18 26 9 -9 14 -39 6z m87 -78 c0 -5 -4 -10 -9 -10 -6 0 -13 5 -16 10 -3
6 1 10 9 10 9 0 16 -4 16 -10z m-85 -20 c3 -5 1 -10 -4 -10 -6 0 -11 5 -11 10
0 6 2 10 4 10 3 0 8 -4 11 -10z"/>
<path d="M1831 1144 c-41 -52 -15 -135 46 -147 89 -17 147 89 83 153 -14 14
-34 20 -64 20 -36 0 -48 -5 -65 -26z m119 -4 c9 -17 8 -20 -9 -20 -11 0 -22
-4 -26 -10 -3 -5 -12 -7 -20 -4 -12 5 -12 9 2 30 19 29 39 31 53 4z m-10 -69
c0 -6 -4 -13 -10 -16 -5 -3 -10 1 -10 9 0 9 5 16 10 16 6 0 10 -4 10 -9z"/>
<path d="M1942 664 c-7 -8 -8 -14 -3 -14 10 0 25 19 20 25 -2 1 -10 -3 -17
-11z"/>
<path d="M1073 433 c0 -9 4 -10 14 -2 7 6 13 12 13 14 0 1 -6 2 -13 2 -8 0
-14 -6 -14 -14z"/>
<path d="M3320 3159 c-12 -8 -12 -12 -2 -16 17 -6 34 -47 39 -93 5 -46 10 -60
23 -60 6 0 8 10 4 24 -4 15 0 34 10 47 8 13 13 32 10 44 -4 15 2 25 20 35 14
7 23 17 20 22 -7 12 -106 10 -124 -3z m58 -17 c2 -7 -6 -12 -17 -12 -21 0 -27
11 -14 24 9 9 26 2 31 -12z"/>
<path d="M781 3134 c0 -11 3 -14 6 -6 3 7 2 16 -1 19 -3 4 -6 -2 -5 -13z"/>
<path d="M1306 3139 c3 -6 0 -16 -6 -24 -10 -12 -9 -15 5 -15 10 0 15 3 12 7
-4 3 1 11 10 18 14 11 14 12 -6 18 -12 3 -19 1 -15 -4z"/>
<path d="M1063 3105 c-3 -9 -3 -18 -1 -21 3 -3 8 4 11 16 6 23 -1 27 -10 5z"/>
<path d="M1252 3049 c-13 -16 -20 -29 -15 -29 5 0 19 14 31 30 29 39 14 38
-16 -1z"/>
<path d="M2529 3059 c-9 -17 -9 -24 0 -27 6 -2 8 -8 5 -14 -4 -6 2 -6 14 1 31
16 34 26 13 45 -18 17 -20 17 -32 -5z"/>
<path d="M2740 3020 c-8 -5 -10 -10 -5 -10 6 0 17 5 25 10 8 5 11 10 5 10 -5
0 -17 -5 -25 -10z"/>
<path d="M976 2995 c4 -8 8 -15 10 -15 2 0 4 7 4 15 0 8 -4 15 -10 15 -5 0 -7
-7 -4 -15z"/>
<path d="M1918 2993 c-37 -9 -31 -89 8 -125 39 -35 48 -27 46 36 -3 57 -15 97
-30 95 -4 -1 -15 -3 -24 -6z"/>
<path d="M2464 2948 c-4 -7 -9 -45 -10 -86 l-1 -73 22 21 c30 28 38 73 20 116
-15 37 -20 40 -31 22z"/>
<path d="M2965 2919 c-89 -5 -75 -8 55 -13 25 0 48 -5 52 -11 5 -6 11 -6 18 1
20 20 -32 29 -125 23z"/>
<path d="M940 2910 c20 -13 33 -13 25 0 -3 6 -14 10 -23 10 -15 0 -15 -2 -2
-10z"/>
<path d="M2755 2900 c-3 -5 -1 -10 4 -10 6 0 11 5 11 10 0 6 -2 10 -4 10 -3 0
-8 -4 -11 -10z"/>
<path d="M2698 2883 c7 -3 16 -2 19 1 4 3 -2 6 -13 5 -11 0 -14 -3 -6 -6z"/>
<path d="M2785 2880 c3 -5 11 -10 16 -10 6 0 7 5 4 10 -3 6 -11 10 -16 10 -6
0 -7 -4 -4 -10z"/>
<path d="M775 2840 c-3 -5 -1 -10 4 -10 6 0 11 5 11 10 0 6 -2 10 -4 10 -3 0
-8 -4 -11 -10z"/>
<path d="M3407 2513 c-12 -12 -8 -253 4 -253 7 0 9 10 5 26 -4 14 -2 31 3 38
10 12 16 94 13 164 -2 31 -11 40 -25 25z"/>
<path d="M3634 2445 c-9 -21 16 -51 27 -33 14 21 10 48 -6 48 -9 0 -18 -7 -21
-15z"/>
<path d="M3491 2416 c-12 -14 -5 -26 16 -26 15 0 18 26 4 34 -5 3 -14 0 -20
-8z"/>
<path d="M3560 2410 c-9 -16 -8 -22 5 -26 21 -8 39 10 32 30 -9 22 -24 20 -37
-4z"/>
<path d="M2596 2348 c3 -5 10 -6 15 -3 13 9 11 12 -6 12 -8 0 -12 -4 -9 -9z"/>
<path d="M3634 2300 c-14 -14 -43 -23 -104 -31 -58 -7 -88 -15 -96 -27 -16
-20 -13 -33 7 -42 78 -37 89 -45 89 -63 0 -18 -6 -19 -95 -15 -57 3 -95 1 -95
-5 0 -5 -7 -4 -15 3 -8 7 -15 10 -15 6 0 -4 -14 1 -31 9 -32 17 -59 14 -59 -5
0 -6 11 -26 25 -45 l26 -33 -31 2 c-16 1 -37 11 -45 22 -15 18 -15 17 -13 -16
2 -27 -2 -37 -19 -45 -20 -10 -21 -13 -8 -32 12 -18 12 -23 0 -39 -16 -22 -20
-38 -6 -30 5 4 13 -8 16 -26 9 -42 49 -120 69 -137 19 -16 21 -38 4 -43 -8 -3
-2 -13 15 -28 15 -13 27 -31 27 -40 0 -9 4 -20 9 -26 4 -5 19 -43 31 -84 19
-65 22 -90 17 -180 -7 -135 -19 -188 -58 -257 -21 -37 -17 -41 45 -49 45 -7
46 -6 46 20 0 16 -5 26 -15 26 -8 0 -15 5 -15 11 0 6 7 9 15 5 18 -7 21 20 3
27 -9 4 -9 8 -3 14 6 5 11 104 13 248 2 132 4 296 5 365 2 105 -1 133 -17 168
-11 23 -16 45 -13 49 10 9 42 -75 56 -146 12 -63 17 -423 6 -441 -3 -5 -1 -11
4 -14 10 -6 7 -349 -3 -365 -9 -13 115 -135 170 -167 33 -19 66 -27 141 -35
88 -8 147 -14 208 -22 11 -1 25 -9 31 -17 10 -12 14 -12 28 -1 14 12 16 74 16
608 0 364 -4 592 -9 588 -18 -11 -22 15 -5 39 9 14 14 31 12 37 -4 11 -30 -25
-66 -88 -14 -25 -52 -32 -52 -9 0 8 27 55 60 105 33 50 60 95 60 99 0 4 -41 6
-90 4 -72 -3 -104 1 -155 18 -60 20 -65 24 -65 51 0 26 -24 99 -32 99 -2 0
-13 -9 -24 -20z m256 -175 c0 -8 -7 -15 -15 -15 -16 0 -20 12 -8 23 11 12 23
8 23 -8z m-170 -25 c0 -5 -4 -10 -10 -10 -5 0 -10 5 -10 10 0 6 5 10 10 10 6
0 10 -4 10 -10z m-250 -65 c0 -8 -7 -15 -15 -15 -8 0 -15 7 -15 15 0 8 7 15
15 15 8 0 15 -7 15 -15z m-186 -76 c-3 -5 -10 -7 -15 -3 -5 3 -7 10 -3 15 3 5
10 7 15 3 5 -3 7 -10 3 -15z m-34 -9 c0 -5 -4 -10 -10 -10 -5 0 -10 5 -10 10
0 6 5 10 10 10 6 0 10 -4 10 -10z m712 -22 c-7 -7 -12 -8 -12 -2 0 14 12 26
19 19 2 -3 -1 -11 -7 -17z m-652 -3 c0 -8 -4 -15 -10 -15 -5 0 -10 7 -10 15 0
8 5 15 10 15 6 0 10 -7 10 -15z m307 -39 c-4 -9 -16 -16 -27 -16 -29 0 -38 30
-15 47 16 11 21 11 33 -1 8 -8 12 -22 9 -30z m-385 19 c0 -5 -5 -11 -11 -13
-6 -2 -11 4 -11 13 0 9 5 15 11 13 6 -2 11 -8 11 -13z m98 -15 c0 -5 -4 -10
-10 -10 -5 0 -10 5 -10 10 0 6 5 10 10 10 6 0 10 -4 10 -10z m460 3 c0 -15
-52 -73 -66 -73 -21 0 -17 11 18 47 30 31 48 41 48 26z m68 -41 c2 -7 -3 -12
-12 -12 -9 0 -16 7 -16 16 0 17 22 14 28 -4z m-588 -2 c0 -5 -4 -10 -10 -10
-5 0 -10 5 -10 10 0 6 5 10 10 10 6 0 10 -4 10 -10z m404 -27 c-13 -53 -50
-138 -60 -135 -15 5 -7 49 20 107 26 58 51 75 40 28z m-314 -3 c0 -5 -4 -10
-10 -10 -5 0 -10 5 -10 10 0 6 5 10 10 10 6 0 10 -4 10 -10z m-63 -26 c-9 -9
-28 6 -21 18 4 6 10 6 17 -1 6 -6 8 -13 4 -17z m65 -39 c0 -5 -5 -11 -11 -13
-6 -2 -11 4 -11 13 0 9 5 15 11 13 6 -2 11 -8 11 -13z m8 -65 c0 -5 -4 -10
-10 -10 -5 0 -10 5 -10 10 0 6 5 10 10 10 6 0 10 -4 10 -10z m110 -41 c0 -5
-4 -9 -10 -9 -5 0 -10 7 -10 16 0 8 5 12 10 9 6 -3 10 -10 10 -16z m154 -13
c9 -14 13 -32 10 -41 -6 -14 0 -16 36 -13 33 2 44 7 46 21 1 11 4 21 6 23 3 2
41 1 86 -3 45 -3 80 -8 78 -10 -3 -3 -39 -5 -80 -4 -66 1 -76 -2 -76 -17 0 -9
-3 -28 -7 -41 -6 -24 -6 -24 53 -18 32 3 77 2 99 -2 l40 -8 -28 -11 c-16 -7
-35 -12 -43 -12 -12 0 -15 -9 -12 -37 l3 -38 -65 0 -65 0 -5 45 c-5 44 -6 45
-44 48 -67 6 -84 -3 -88 -46 l-3 -37 -65 3 c-85 3 -90 6 -90 44 0 48 8 54 79
66 35 6 65 13 66 14 1 2 9 24 19 51 10 26 21 47 26 47 4 0 15 -11 24 -24z
m-264 10 c0 -3 -4 -8 -10 -11 -5 -3 -10 -1 -10 4 0 6 5 11 10 11 6 0 10 -2 10
-4z m203 -243 c4 -2 7 -33 7 -68 0 -37 5 -67 12 -71 16 -10 -19 -34 -50 -34
-16 0 -26 7 -29 20 -9 35 -28 16 -31 -33 -3 -40 0 -48 23 -63 18 -12 23 -20
16 -27 -16 -16 -13 -40 4 -33 8 3 21 -1 29 -10 8 -8 21 -13 28 -12 10 2 14
-16 16 -69 3 -72 2 -73 -22 -73 -13 0 -26 -6 -29 -12 -3 -10 -8 -8 -18 4 -8 9
-25 18 -39 20 l-25 3 -3 225 c-1 123 0 231 3 238 4 11 17 13 53 7 26 -4 50 -9
55 -12z m255 -32 c7 -9 12 -35 10 -61 l-3 -45 -55 3 c-30 2 -58 9 -62 15 -10
15 -10 101 -1 111 12 12 97 -5 111 -23z m-5 -253 c15 -7 17 -24 17 -123 0 -66
-4 -115 -10 -115 -5 0 -32 5 -60 11 l-51 11 4 96 c3 54 6 99 7 102 1 3 2 13 1
22 -2 14 4 16 36 11 21 -3 46 -10 56 -15z m-153 -118 c0 -5 -2 -10 -4 -10 -3
0 -8 5 -11 10 -3 6 -1 10 4 10 6 0 11 -4 11 -10z"/>
<path d="M1660 2280 c-9 -6 -10 -10 -3 -10 6 0 15 5 18 10 8 12 4 12 -15 0z"/>
<path d="M2240 2250 c0 -8 -15 -29 -32 -48 -25 -26 -27 -32 -11 -23 33 17 51
14 91 -16 l37 -27 -27 29 c-15 17 -34 46 -42 65 -8 19 -15 28 -16 20z"/>
<path d="M920 2178 c-1 -29 -3 -76 -6 -104 -5 -46 -3 -52 15 -57 22 -5 21 -10
24 123 1 66 -4 90 -18 90 -11 0 -15 -13 -15 -52z"/>
<path d="M2745 2140 c3 -5 11 -10 16 -10 6 0 7 5 4 10 -3 6 -11 10 -16 10 -6
0 -7 -4 -4 -10z"/>
<path d="M1938 2123 c7 -3 16 -2 19 1 4 3 -2 6 -13 5 -11 0 -14 -3 -6 -6z"/>
<path d="M2816 2109 c5 -9 2 -11 -9 -6 -27 10 -27 -21 0 -55 l27 -33 -30 27
-29 27 -34 -34 c-19 -19 -37 -32 -41 -30 -13 8 -33 -24 -26 -42 5 -16 4 -16
-6 -2 -10 14 -16 11 -53 -26 -42 -43 -155 -122 -155 -108 0 4 -10 -3 -23 -17
-12 -14 -26 -25 -32 -26 -5 0 -35 -12 -65 -27 -30 -14 -68 -28 -85 -31 -16 -2
-30 -5 -30 -6 0 -2 -36 -10 -57 -12 -10 -1 -18 -7 -18 -14 0 -13 24 -9 190 29
188 44 204 49 245 68 22 10 46 19 53 19 6 0 12 4 12 8 0 5 18 15 40 22 22 7
40 19 40 26 0 7 5 14 10 16 6 2 12 14 15 28 2 14 14 32 25 42 11 9 20 21 20
27 0 6 4 11 8 11 5 0 21 22 36 50 l27 49 -32 16 c-20 11 -28 12 -23 4z"/>
<path d="M552 2025 l-23 -27 63 5 c81 7 128 17 128 28 0 5 -17 9 -37 9 -21 0
-54 3 -73 6 -29 5 -39 1 -58 -21z"/>
<path d="M1128 1993 c7 -3 16 -2 19 1 4 3 -2 6 -13 5 -11 0 -14 -3 -6 -6z"/>
<path d="M1113 1965 c0 -7 6 -11 14 -8 7 3 13 6 13 8 0 2 -6 5 -13 8 -8 3 -14
-1 -14 -8z"/>
<path d="M984 1699 c-5 -8 -3 -9 6 -4 9 6 10 2 5 -15 -5 -15 -4 -20 4 -16 13
9 14 33 2 41 -5 3 -13 0 -17 -6z"/>
<path d="M2125 1690 c-3 -5 -1 -10 4 -10 6 0 11 5 11 10 0 6 -2 10 -4 10 -3 0
-8 -4 -11 -10z"/>
<path d="M1025 1670 c3 -5 8 -10 11 -10 2 0 4 5 4 10 0 6 -5 10 -11 10 -5 0
-7 -4 -4 -10z"/>
<path d="M1243 1636 c0 -8 6 -12 14 -9 11 4 17 -7 15 -29 -1 -3 5 -9 13 -12
20 -7 19 1 -6 35 -22 31 -36 37 -36 15z"/>
<path d="M1928 1643 c7 -3 16 -2 19 1 4 3 -2 6 -13 5 -11 0 -14 -3 -6 -6z"/>
<path d="M780 1608 c-1 -7 -3 -48 -5 -90 -2 -46 0 -78 5 -78 6 0 10 40 10 90
0 50 -2 90 -5 90 -3 0 -5 -6 -5 -12z"/>
<path d="M633 1305 c-3 -9 -3 -18 -1 -21 8 -8 58 15 58 26 0 16 -50 12 -57 -5z"/>
<path d="M715 1231 c-10 -17 12 -22 72 -15 86 9 90 24 6 24 -40 0 -74 -4 -78
-9z"/>
<path d="M483 644 c-6 -17 12 -79 29 -101 13 -16 60 -17 76 -1 19 19 14 35
-24 78 -38 42 -70 51 -81 24z"/>
<path d="M3490 524 c-42 -38 -50 -61 -25 -70 40 -16 116 53 101 92 -9 23 -34
16 -76 -22z"/>
<path d="M25 65 c-16 -13 -27 -27 -24 -29 3 -3 18 8 34 24 35 36 31 38 -10 5z"/>
<path d="M139 73 c-13 -16 -12 -17 4 -4 9 7 17 15 17 17 0 8 -8 3 -21 -13z"/>
<path d="M89 23 l-24 -28 28 24 c25 23 32 31 24 31 -2 0 -14 -12 -28 -27z"/>
<path d="M3605 26 c10 -14 19 -26 22 -26 7 0 -17 39 -28 46 -6 3 -3 -5 6 -20z"/>
</g>
</svg>
